# This file uses centimeters as units for non-parametric coordinates.

v -0.746304 21.141643 0.532043
v 0.726246 21.182638 0.532867
v -0.537703 22.697020 0.382263
v 0.477793 22.729265 0.378998
v -0.568056 22.647127 -0.505341
v 0.464661 22.690142 -0.491394
v -0.780996 21.053331 -0.645172
v 0.713055 21.117445 -0.634583
v -1.610384 15.378745 1.432587
v 1.620522 15.402491 1.426392
v -1.431106 18.641729 1.265717
v 1.378805 18.740810 1.249481
v -1.494371 18.532936 -1.306824
v 1.359098 18.660868 -1.269897
v -1.625360 15.315876 -1.424255
v 1.613300 15.362490 -1.426147
v -1.132145 14.804148 0.949646
v 0.959352 14.804148 0.944946
v -1.506098 15.414985 1.341858
v 1.326279 15.427729 1.336700
v -1.521431 15.342547 -1.256348
v 1.318544 15.377223 -1.258057
v -1.136075 14.804148 -0.980682
v 0.955421 14.804148 -0.985413
v -1.237713 18.585079 0.919952
v 1.241543 18.622358 0.921112
v -1.074866 21.175615 0.811890
v 1.022381 21.256380 0.805298
v -1.136722 21.050903 -0.873474
v 0.994959 21.158586 -0.847931
v -1.295983 18.504902 -0.966400
v 1.220158 18.563162 -0.950165
v 0.510824 14.873279 -0.029938
v 0.425631 14.951978 -0.195648
v 0.425962 14.951978 -0.029510
v -0.832680 15.080714 -0.096985
v -0.747486 15.159457 0.068726
v -0.747814 15.159457 -0.096954
v -0.337751 22.654676 0.197632
v 0.297836 22.675074 0.198181
v -0.247593 23.922586 0.133179
v 0.190418 23.920889 0.131439
v -0.260960 23.925131 -0.249786
v 0.184900 23.922937 -0.243774
v -0.352585 22.610815 -0.310028
v 0.292334 22.642651 -0.305603
v -0.451754 0.000000 0.406036
v -0.453787 0.000000 -0.402313
v 0.324228 0.000000 -0.403839
v 0.326227 0.000000 0.404510
v -0.341797 14.804148 0.289032
v 0.215412 14.804148 0.288300
v -0.342979 14.804148 -0.285583
v 0.214249 14.804148 -0.286804
v -0.355791 1.198894 0.305206
v -0.357153 1.198894 -0.301697
v 0.228657 1.198894 -0.302734
v 0.229797 1.198894 0.304047
vt 0.926588 0.459684
vt 0.926199 0.460237
vt 0.924944 0.460285
vt 0.925194 0.459620
vt 0.985071 0.459505
vt 0.987257 0.459506
vt 0.987254 0.459548
vt 0.985110 0.459547
vt 0.926484 0.459637
vt 0.926863 0.460292
vt 0.925705 0.460246
vt 0.925204 0.459701
vt 0.898740 0.459862
vt 0.898494 0.459504
vt 0.899311 0.459523
vt 0.899602 0.459840
vt 0.898180 0.459678
vt 0.897974 0.459901
vt 0.897495 0.459888
vt 0.897724 0.459689
vt 0.924867 0.459869
vt 0.925291 0.459354
vt 0.927908 0.459310
vt 0.927881 0.459928
vt 0.984571 0.459501
vt 0.987783 0.459502
vt 0.987770 0.459553
vt 0.984624 0.459552
vt 0.838360 0.460109
vt 0.830860 0.460113
vt 0.830874 0.459037
vt 0.838361 0.459037
vt 0.897595 0.459935
vt 0.897568 0.459610
vt 0.899199 0.459628
vt 0.899404 0.459914
vt 0.899451 0.459638
vt 0.899405 0.459990
vt 0.897704 0.459970
vt 0.898006 0.459653
vt 0.925170 0.460259
vt 0.924640 0.459751
vt 0.927271 0.459690
vt 0.927322 0.460290
vt 0.866285 0.460602
vt 0.866285 0.459475
vt 0.871497 0.459278
vt 0.871489 0.460804
vt 0.899849 0.459919
vt 0.899849 0.459914
vt 0.899637 0.459914
vt 0.899637 0.459919
vt 0.862434 0.460812
vt 0.862486 0.459282
vt 0.866101 0.459478
vt 0.866101 0.460605
vt 0.832694 0.460755
vt 0.832694 0.460119
vt 0.837388 0.460119
vt 0.837388 0.460755
vt 0.899817 0.459915
vt 0.899660 0.459915
vt 0.899660 0.459919
vt 0.899817 0.459919
vt 0.926588 0.459684
vt 0.926199 0.460237
vt 0.924944 0.460285
vt 0.925194 0.459620
vt 0.985071 0.459505
vt 0.987257 0.459506
vt 0.987254 0.459548
vt 0.985110 0.459547
vt 0.926484 0.459637
vt 0.926863 0.460292
vt 0.925705 0.460246
vt 0.925204 0.459701
vt 0.898740 0.459862
vt 0.898494 0.459504
vt 0.899311 0.459523
vt 0.899602 0.459840
vt 0.898180 0.459678
vt 0.897974 0.459901
vt 0.897495 0.459888
vt 0.897724 0.459689
vt 0.267217 0.401818
vt 0.267857 0.401818
vt 0.267857 0.401829
vt 0.267217 0.401818
vt 0.267857 0.401818
vt 0.267857 0.401829
vt 0.926199 0.460237
vt 0.924944 0.460285
vt 0.925194 0.459620
vt 0.926588 0.459684
vt 0.985071 0.459505
vt 0.987257 0.459506
vt 0.987254 0.459548
vt 0.985110 0.459547
vt 0.926863 0.460292
vt 0.925705 0.460246
vt 0.925204 0.459701
vt 0.926484 0.459637
vt 0.898740 0.459862
vt 0.898494 0.459504
vt 0.899311 0.459523
vt 0.899602 0.459840
vt 0.898180 0.459678
vt 0.897974 0.459901
vt 0.897495 0.459888
vt 0.897724 0.459689
vt 0.266602 0.400743
vt 0.267210 0.400743
vt 0.267210 0.401133
vt 0.266602 0.401133
vt 0.291125 0.400767
vt 0.293702 0.400767
vt 0.293593 0.401153
vt 0.291234 0.401153
vt 0.296362 0.400767
vt 0.296253 0.401153
vt 0.293894 0.401153
vt 0.293785 0.400767
vt 0.267835 0.401133
vt 0.267835 0.400743
vt 0.268443 0.400743
vt 0.268443 0.401133
vt 0.267210 0.401328
vt 0.266602 0.401328
vt 0.268443 0.401328
vt 0.267835 0.401328
vt 0.296094 0.401424
vt 0.294053 0.401424
vt 0.291393 0.401424
vt 0.293434 0.401424
vn -0.001888 0.097398 0.995244
vn -0.001888 0.097398 0.995244
vn -0.001888 0.097398 0.995244
vn -0.001888 0.097398 0.995244
vn -0.036415 0.998103 -0.049639
vn -0.036415 0.998103 -0.049639
vn -0.036415 0.998103 -0.049639
vn -0.036416 0.998103 -0.049639
vn 0.005863 0.089089 -0.996006
vn 0.005863 0.089089 -0.996006
vn 0.005863 0.089089 -0.996006
vn 0.005863 0.089089 -0.996006
vn 0.987349 0.157191 -0.020800
vn 0.987349 0.157191 -0.020800
vn 0.987349 0.157191 -0.020800
vn 0.987349 0.157191 -0.020800
vn -0.990903 0.132709 0.022332
vn -0.990903 0.132709 0.022332
vn -0.990903 0.132709 0.022332
vn -0.990903 0.132709 0.022332
vn 0.002653 0.052032 0.998642
vn 0.002653 0.052032 0.998642
vn 0.002653 0.052032 0.998642
vn 0.002653 0.052032 0.998642
vn -0.039893 0.998542 -0.036361
vn -0.039893 0.998542 -0.036361
vn -0.039893 0.998542 -0.036361
vn -0.039893 0.998542 -0.036361
vn 0.010896 -0.999779 0.017972
vn 0.010896 -0.999779 0.017972
vn 0.010896 -0.999779 0.017972
vn 0.010896 -0.999779 0.017972
vn 0.997199 0.074494 -0.006662
vn 0.997199 0.074494 -0.006662
vn 0.997199 0.074494 -0.006662
vn 0.997199 0.074494 -0.006662
vn -0.998768 0.047920 0.012878
vn -0.998768 0.047920 0.012878
vn -0.998768 0.047920 0.012878
vn -0.998768 0.047920 0.012878
vn 0.004545 0.042053 -0.999105
vn 0.004545 0.042053 -0.999105
vn 0.004545 0.042053 -0.999105
vn 0.004545 0.042053 -0.999105
vn 0.003069 -0.536096 0.844152
vn 0.003069 -0.536095 0.844152
vn 0.003069 -0.536096 0.844152
vn 0.003069 -0.536095 0.844152
vn -0.008386 0.999686 -0.023629
vn -0.008386 0.999686 -0.023629
vn -0.008386 0.999686 -0.023629
vn -0.008386 0.999686 -0.023629
vn 0.001937 -0.442380 -0.896826
vn 0.001937 -0.442380 -0.896826
vn 0.001937 -0.442380 -0.896826
vn 0.001937 -0.442380 -0.896826
vn 0.000000 -1.000000 0.000000
vn 0.000000 -1.000000 0.000000
vn 0.000000 -1.000000 0.000000
vn 0.000000 -1.000000 0.000000
vn 0.853512 -0.521061 0.003615
vn 0.853512 -0.521061 0.003615
vn 0.853512 -0.521061 0.003615
vn 0.853512 -0.521061 0.003615
vn -0.833691 -0.552093 0.012378
vn -0.833691 -0.552093 0.012378
vn -0.833691 -0.552093 0.012378
vn -0.833691 -0.552093 0.012378
vn 0.000061 0.042812 0.999083
vn 0.000061 0.042812 0.999083
vn 0.000061 0.042812 0.999083
vn 0.000061 0.042812 0.999083
vn -0.044131 0.996892 -0.065259
vn -0.044131 0.996892 -0.065259
vn -0.044131 0.996892 -0.065259
vn -0.044131 0.996892 -0.065259
vn 0.007612 0.038028 -0.999248
vn 0.007612 0.038028 -0.999248
vn 0.007612 0.038028 -0.999248
vn 0.007612 0.038028 -0.999248
vn 0.996259 0.084609 -0.017565
vn 0.996259 0.084609 -0.017565
vn 0.996260 0.084609 -0.017565
vn 0.996260 0.084609 -0.017565
vn -0.997586 0.062647 0.029958
vn -0.997586 0.062647 0.029958
vn -0.997586 0.062647 0.029958
vn -0.997586 0.062647 0.029958
vn 0.680037 0.733177 -0.001351
vn 0.680037 0.733177 -0.001351
vn 0.680037 0.733177 -0.001351
vn -0.680161 0.733062 0.001355
vn -0.680161 0.733062 0.001355
vn -0.680161 0.733062 0.001355
vn 0.000250 0.052122 0.998641
vn 0.000250 0.052122 0.998641
vn 0.000250 0.052122 0.998641
vn 0.000250 0.052122 0.998641
vn 0.004373 0.999973 0.005949
vn 0.004373 0.999973 0.005949
vn 0.004373 0.999973 0.005949
vn 0.004373 0.999973 0.005949
vn 0.008245 0.047045 -0.998859
vn 0.008245 0.047045 -0.998859
vn 0.008245 0.047045 -0.998859
vn 0.008245 0.047045 -0.998859
vn 0.996285 0.084721 -0.015421
vn 0.996285 0.084721 -0.015421
vn 0.996285 0.084721 -0.015421
vn 0.996285 0.084721 -0.015421
vn -0.997128 0.070238 0.028312
vn -0.997128 0.070238 0.028312
vn -0.997128 0.070238 0.028312
vn -0.997128 0.070238 0.028312
vn -0.996787 0.080068 0.002391
vn -0.996787 0.080068 0.002391
vn -0.996787 0.080068 0.002391
vn -0.996787 0.080068 0.002391
vn -0.001860 0.083832 -0.996478
vn -0.001860 0.083832 -0.996478
vn -0.001860 0.083832 -0.996478
vn -0.001860 0.083832 -0.996478
vn 0.001935 0.083656 0.996493
vn 0.001935 0.083656 0.996493
vn 0.001935 0.083656 0.996493
vn 0.001935 0.083656 0.996493
vn 0.996807 0.079821 -0.002212
vn 0.996807 0.079821 -0.002212
vn 0.996807 0.079821 -0.002212
vn 0.996807 0.079821 -0.002212
vn -0.999997 0.001035 0.002154
vn -0.999997 0.001035 0.002154
vn -0.999997 0.001035 0.002154
vn -0.999997 0.001035 0.002154
vn 0.999998 0.001058 -0.001949
vn 0.999998 0.001058 -0.001949
vn 0.999998 0.001058 -0.001949
vn 0.999998 0.001058 -0.001949
vn 0.001633 0.001173 0.999998
vn 0.001633 0.001173 0.999998
vn 0.001633 0.001173 0.999998
vn 0.001633 0.001173 0.999998
vn -0.002009 0.001178 -0.999997
vn -0.002009 0.001178 -0.999997
vn -0.002009 0.001178 -0.999997
vn -0.002009 0.001178 -0.999997
s off
f 4/1/1 3/2/2 1/3/3 2/4/4
f 5/5/5 3/6/6 4/7/7 6/8/8
f 8/9/9 7/10/10 5/11/11 6/12/12
f 2/13/13 8/14/14 6/15/15 4/16/16
f 7/17/17 1/18/18 3/19/19 5/20/20
f 12/21/21 11/22/22 9/23/23 10/24/24
f 13/25/25 11/26/26 12/27/27 14/28/28
f 9/29/29 15/30/30 16/31/31 10/32/32
f 10/33/33 16/34/34 14/35/35 12/36/36
f 15/37/37 9/38/38 11/39/39 13/40/40
f 13/41/41 14/42/42 16/43/43 15/44/44
f 17/45/45 18/46/46 20/47/47 19/48/48
f 19/49/49 20/50/50 22/51/51 21/52/52
f 21/53/53 22/54/54 24/55/55 23/56/56
f 23/57/57 24/58/58 18/59/59 17/60/60
f 18/61/61 24/62/62 22/51/63 20/50/64
f 23/63/65 17/64/66 19/49/67 21/52/68
f 28/65/69 27/66/70 25/67/71 26/68/72
f 29/69/73 27/70/74 28/71/75 30/72/76
f 32/73/77 31/74/78 29/75/79 30/76/80
f 26/77/81 32/78/82 30/79/83 28/80/84
f 31/81/85 25/82/86 27/83/87 29/84/88
f 34/85/89 35/86/90 33/87/91
f 37/88/92 38/89/93 36/90/94
f 41/91/95 39/92/96 40/93/97 42/94/98
f 43/95/99 41/96/100 42/97/101 44/98/102
f 45/99/103 43/100/104 44/101/105 46/102/106
f 40/103/107 46/104/108 44/105/109 42/106/110
f 45/107/111 39/108/112 41/109/113 43/110/114
f 48/111/115 47/112/116 55/113/117 56/114/118
f 49/115/119 48/116/120 56/117/121 57/118/122
f 50/119/123 58/120/124 55/121/125 47/122/126
f 58/123/127 50/124/128 49/125/129 57/126/130
f 56/114/131 55/113/132 51/127/133 53/128/134
f 54/129/135 52/130/136 58/123/137 57/126/138
f 55/121/139 58/120/140 52/131/141 51/132/142
f 54/133/143 57/118/144 56/117/145 53/134/146
