# This file uses centimeters as units for non-parametric coordinates.

v 0.724676 18.463219 -0.559509
v -0.746698 18.504213 -0.505524
v 0.522038 20.018595 -0.402161
v -0.492912 20.050840 -0.360962
v 0.585119 19.968702 0.483704
v -0.447052 20.011717 0.508331
v 0.803072 18.374907 0.615265
v -0.690378 18.439020 0.660706
v 1.554400 12.700321 -1.491638
v -1.673649 12.724067 -1.365448
v 1.381805 15.963305 -1.317932
v -1.425482 16.062386 -1.197510
v 1.540363 15.854511 1.250153
v -1.312242 15.982443 1.319336
v 1.676195 12.637452 1.363037
v -1.560628 12.684066 1.484894
v 1.094719 12.125724 -0.990906
v -0.995194 12.125724 -0.908905
v 1.453653 12.736561 -1.396973
v -1.376415 12.749305 -1.286499
v 1.565759 12.664124 1.198730
v -1.272596 12.698799 1.306030
v 1.170632 12.125724 0.938019
v -0.919280 12.125724 1.019958
v 1.201591 15.906655 -0.965454
v -1.276288 15.943934 -0.874268
v 1.043000 18.497190 -0.851257
v -1.053077 18.577955 -0.766571
v 1.167297 18.372478 0.830750
v -0.964158 18.480162 0.884277
v 1.329946 15.826478 0.917450
v -1.185313 15.884738 0.994812
v -0.503837 12.194855 0.214630
v -0.510662 12.194855 0.048584
v -0.419160 12.273554 0.211304
v -0.425963 12.273554 0.045227
v 0.827707 12.402290 -0.100128
v 0.834050 12.402290 0.065826
v 0.742985 12.481033 -0.096771
v 0.749317 12.481033 0.069214
v 0.328675 19.976252 -0.210144
v -0.306300 19.996649 -0.186859
v 0.241365 21.244162 -0.142242
v -0.196432 21.242464 -0.124420
v 0.268503 21.246706 0.239960
v -0.176909 21.244513 0.250610
v 0.362412 19.932390 0.296661
v -0.282219 19.964226 0.316162
v 0.045729 21.242727 -0.131531
v 0.069353 21.245008 0.242004
v 0.431606 0.000000 -0.418793
v 0.462819 0.000000 0.381287
v -0.307391 0.000000 0.411438
v -0.338614 0.000000 -0.388611
v 0.329289 12.125724 -0.301910
v -0.227223 12.125724 -0.279968
v 0.351899 12.125724 0.272736
v -0.205096 12.125724 0.294617
v 0.343102 1.198894 -0.318359
v 0.366898 1.198894 0.288086
v -0.218919 1.198894 0.311035
v -0.242211 1.198894 -0.295319
vt 0.926588 0.444178
vt 0.926199 0.444840
vt 0.924944 0.444898
vt 0.925194 0.444100
vt 0.985071 0.443963
vt 0.987257 0.443964
vt 0.987254 0.444014
vt 0.985110 0.444013
vt 0.926484 0.444121
vt 0.926863 0.444906
vt 0.925705 0.444851
vt 0.925204 0.444198
vt 0.898740 0.444391
vt 0.898494 0.443961
vt 0.899311 0.443985
vt 0.899602 0.444364
vt 0.898180 0.444170
vt 0.897974 0.444437
vt 0.897495 0.444422
vt 0.897724 0.444183
vt 0.924867 0.444398
vt 0.925291 0.443782
vt 0.927908 0.443729
vt 0.927881 0.444470
vt 0.984571 0.443958
vt 0.987783 0.443960
vt 0.987770 0.444020
vt 0.984624 0.444020
vt 0.838360 0.444687
vt 0.830860 0.444691
vt 0.830874 0.443402
vt 0.838361 0.443401
vt 0.897595 0.444478
vt 0.897568 0.444089
vt 0.899199 0.444110
vt 0.899404 0.444453
vt 0.899451 0.444122
vt 0.899405 0.444544
vt 0.897704 0.444519
vt 0.898006 0.444140
vt 0.925170 0.444867
vt 0.924640 0.444257
vt 0.927271 0.444184
vt 0.927322 0.444904
vt 0.866285 0.445278
vt 0.866285 0.443927
vt 0.871497 0.443690
vt 0.871489 0.445519
vt 0.899849 0.444459
vt 0.899849 0.444453
vt 0.899637 0.444453
vt 0.899637 0.444459
vt 0.862434 0.445529
vt 0.862486 0.443695
vt 0.866101 0.443930
vt 0.866101 0.445281
vt 0.832694 0.445461
vt 0.832694 0.444698
vt 0.837388 0.444698
vt 0.837388 0.445461
vt 0.899817 0.444454
vt 0.899660 0.444454
vt 0.899660 0.444458
vt 0.899817 0.444458
vt 0.926588 0.444178
vt 0.926199 0.444840
vt 0.924944 0.444898
vt 0.925194 0.444100
vt 0.985071 0.443963
vt 0.987257 0.443964
vt 0.987254 0.444014
vt 0.985110 0.444013
vt 0.926484 0.444121
vt 0.926863 0.444906
vt 0.925705 0.444851
vt 0.925204 0.444198
vt 0.898740 0.444391
vt 0.898494 0.443961
vt 0.899311 0.443985
vt 0.899602 0.444364
vt 0.898180 0.444170
vt 0.897974 0.444437
vt 0.897495 0.444422
vt 0.897724 0.444183
vt 0.267217 0.401200
vt 0.267857 0.401200
vt 0.267857 0.401197
vt 0.267217 0.401197
vt 0.267217 0.401200
vt 0.267857 0.401200
vt 0.267857 0.401197
vt 0.267217 0.401197
vt 0.924944 0.444898
vt 0.926531 0.444509
vt 0.926199 0.444840
vt 0.987257 0.443964
vt 0.987240 0.443989
vt 0.985104 0.443988
vt 0.985071 0.443963
vt 0.925705 0.444851
vt 0.925327 0.444525
vt 0.926863 0.444906
vt 0.898740 0.444391
vt 0.898494 0.443961
vt 0.899311 0.443985
vt 0.899602 0.444364
vt 0.898180 0.444170
vt 0.897974 0.444437
vt 0.897495 0.444422
vt 0.897724 0.444183
vt 0.987254 0.444014
vt 0.985110 0.444013
vt 0.925194 0.444100
vt 0.926588 0.444178
vt 0.926484 0.444121
vt 0.925204 0.444198
vt 0.266602 0.401550
vt 0.267210 0.401550
vt 0.267210 0.401423
vt 0.266602 0.401423
vt 0.291125 0.401542
vt 0.293702 0.401542
vt 0.293593 0.401417
vt 0.291234 0.401417
vt 0.296362 0.401542
vt 0.296253 0.401417
vt 0.293894 0.401417
vt 0.293785 0.401542
vt 0.267835 0.401423
vt 0.267835 0.401550
vt 0.268443 0.401550
vt 0.268443 0.401423
vt 0.267210 0.401360
vt 0.266602 0.401360
vt 0.268443 0.401360
vt 0.267835 0.401360
vt 0.296094 0.401329
vt 0.294053 0.401329
vt 0.291393 0.401329
vt 0.293434 0.401329
vn -0.035277 0.097385 -0.994621
vn -0.035277 0.097385 -0.994621
vn -0.035277 0.097385 -0.994622
vn -0.035277 0.097385 -0.994621
vn 0.038246 0.998103 0.048246
vn 0.038246 0.998103 0.048246
vn 0.038246 0.998103 0.048246
vn 0.038246 0.998103 0.048246
vn 0.031414 0.089017 0.995535
vn 0.031414 0.089017 0.995535
vn 0.031414 0.089017 0.995535
vn 0.031414 0.089017 0.995535
vn -0.985878 0.157265 0.057551
vn -0.985878 0.157265 0.057551
vn -0.985878 0.157265 0.057551
vn -0.985878 0.157265 0.057551
vn 0.989407 0.132624 -0.059035
vn 0.989407 0.132624 -0.059035
vn 0.989407 0.132624 -0.059035
vn 0.989407 0.132624 -0.059035
vn -0.039700 0.052098 -0.997853
vn -0.039700 0.052098 -0.997853
vn -0.039700 0.052098 -0.997853
vn -0.039700 0.052098 -0.997853
vn 0.041217 0.998542 0.034860
vn 0.041217 0.998542 0.034860
vn 0.041217 0.998542 0.034860
vn 0.041217 0.998542 0.034860
vn -0.011554 -0.999779 -0.017552
vn -0.011554 -0.999779 -0.017552
vn -0.011554 -0.999779 -0.017552
vn -0.011554 -0.999779 -0.017552
vn -0.996263 0.074524 0.043664
vn -0.996263 0.074524 0.043664
vn -0.996263 0.074524 0.043664
vn -0.996263 0.074524 0.043664
vn 0.997595 0.047952 -0.050057
vn 0.997595 0.047952 -0.050057
vn 0.997595 0.047952 -0.050057
vn 0.997595 0.047952 -0.050057
vn 0.032539 0.042113 0.998583
vn 0.032539 0.042113 0.998583
vn 0.032539 0.042113 0.998583
vn 0.032539 0.042113 0.998583
vn -0.034383 -0.536087 -0.843462
vn -0.034383 -0.536087 -0.843462
vn -0.034383 -0.536087 -0.843462
vn -0.034383 -0.536087 -0.843462
vn 0.009258 0.999686 0.023304
vn 0.009258 0.999686 0.023304
vn 0.009258 0.999686 0.023304
vn 0.009258 0.999686 0.023304
vn 0.031295 -0.442153 0.896394
vn 0.031295 -0.442153 0.896394
vn 0.031295 -0.442153 0.896394
vn 0.031295 -0.442153 0.896394
vn 0.000000 -1.000000 0.000000
vn 0.000000 -1.000000 0.000000
vn 0.000000 -1.000000 0.000000
vn 0.000000 -1.000000 0.000000
vn -0.852875 -0.521360 0.028079
vn -0.852875 -0.521360 0.028079
vn -0.852875 -0.521360 0.028079
vn -0.852875 -0.521360 0.028079
vn 0.832776 -0.551903 -0.043440
vn 0.832776 -0.551903 -0.043440
vn 0.832776 -0.551903 -0.043440
vn 0.832776 -0.551903 -0.043440
vn -0.037279 0.042864 -0.998385
vn -0.037279 0.042864 -0.998385
vn -0.037279 0.042864 -0.998385
vn -0.037279 0.042864 -0.998385
vn 0.046517 0.996892 0.063578
vn 0.046517 0.996892 0.063578
vn 0.046517 0.996892 0.063578
vn 0.046517 0.996892 0.063578
vn 0.029507 0.037982 0.998843
vn 0.029507 0.037982 0.998843
vn 0.029507 0.037982 0.998843
vn 0.029507 0.037982 0.998843
vn -0.994919 0.084570 0.054618
vn -0.994919 0.084570 0.054618
vn -0.994920 0.084570 0.054618
vn -0.994919 0.084570 0.054618
vn 0.995787 0.062635 -0.066973
vn 0.995787 0.062635 -0.066973
vn 0.995787 0.062635 -0.066973
vn 0.995787 0.062635 -0.066973
vn -0.679884 0.732789 0.027894
vn -0.679884 0.732789 0.027894
vn -0.679884 0.732789 0.027894
vn -0.679884 0.732789 0.027894
vn 0.679985 0.732766 -0.025970
vn 0.679985 0.732766 -0.025970
vn 0.679985 0.732766 -0.025970
vn 0.679985 0.732766 -0.025970
vn -0.054938 0.049622 -0.997256
vn -0.054938 0.049622 -0.997256
vn -0.054938 0.049622 -0.997256
vn -0.008122 0.999950 -0.005844
vn -0.008122 0.999950 -0.005844
vn -0.008122 0.999950 -0.005844
vn -0.008122 0.999950 -0.005844
vn 0.010244 0.043804 0.998988
vn 0.010244 0.043804 0.998988
vn 0.010244 0.043804 0.998988
vn -0.995019 0.084830 0.052351
vn -0.995019 0.084830 0.052351
vn -0.995019 0.084830 0.052351
vn -0.995019 0.084830 0.052351
vn 0.995424 0.070138 -0.064900
vn 0.995424 0.070138 -0.064900
vn 0.995424 0.070138 -0.064900
vn 0.995424 0.070138 -0.064900
vn -0.001737 0.999982 -0.005680
vn -0.001737 0.999982 -0.005680
vn -0.001737 0.999982 -0.005680
vn -0.001737 0.999982 -0.005680
vn -0.029089 0.052618 -0.998191
vn -0.029089 0.052618 -0.998191
vn -0.029089 0.052618 -0.998191
vn 0.034404 0.048250 0.998243
vn 0.034404 0.048250 0.998243
vn 0.034404 0.048250 0.998243
vn 0.032619 0.048848 0.998273
vn 0.032619 0.048848 0.998273
vn 0.032619 0.048848 0.998273
vn -0.034939 0.054156 -0.997921
vn -0.034939 0.054156 -0.997921
vn -0.034939 0.054156 -0.997921
vn 0.996289 0.076747 -0.038964
vn 0.996289 0.076747 -0.038964
vn 0.996289 0.076747 -0.038964
vn 0.996289 0.076747 -0.038964
vn 0.039038 0.080540 0.995987
vn 0.039038 0.080540 0.995987
vn 0.039038 0.080540 0.995987
vn 0.039038 0.080540 0.995987
vn -0.039127 0.080597 -0.995979
vn -0.039127 0.080597 -0.995979
vn -0.039127 0.080597 -0.995979
vn -0.039127 0.080597 -0.995979
vn -0.996288 0.076929 0.038617
vn -0.996288 0.076929 0.038617
vn -0.996288 0.076929 0.038617
vn -0.996288 0.076929 0.038617
vn 0.999228 0.001319 -0.039262
vn 0.999228 0.001319 -0.039262
vn 0.999228 0.001319 -0.039262
vn 0.999228 0.001319 -0.039262
vn -0.999260 0.001319 0.038430
vn -0.999260 0.001319 0.038430
vn -0.999260 0.001319 0.038430
vn -0.999260 0.001319 0.038430
vn -0.039340 0.001456 -0.999225
vn -0.039340 0.001456 -0.999225
vn -0.039340 0.001456 -0.999225
vn -0.039340 0.001456 -0.999225
vn 0.039228 0.001455 0.999229
vn 0.039228 0.001455 0.999229
vn 0.039228 0.001455 0.999229
vn 0.039228 0.001455 0.999229
s off
f 4/1/1 3/2/2 1/3/3 2/4/4
f 5/5/5 3/6/6 4/7/7 6/8/8
f 8/9/9 7/10/10 5/11/11 6/12/12
f 2/13/13 8/14/14 6/15/15 4/16/16
f 7/17/17 1/18/18 3/19/19 5/20/20
f 12/21/21 11/22/22 9/23/23 10/24/24
f 13/25/25 11/26/26 12/27/27 14/28/28
f 9/29/29 15/30/30 16/31/31 10/32/32
f 10/33/33 16/34/34 14/35/35 12/36/36
f 15/37/37 9/38/38 11/39/39 13/40/40
f 13/41/41 14/42/42 16/43/43 15/44/44
f 17/45/45 18/46/46 20/47/47 19/48/48
f 19/49/49 20/50/50 22/51/51 21/52/52
f 21/53/53 22/54/54 24/55/55 23/56/56
f 23/57/57 24/58/58 18/59/59 17/60/60
f 18/61/61 24/62/62 22/51/63 20/50/64
f 23/63/65 17/64/66 19/49/67 21/52/68
f 28/65/69 27/66/70 25/67/71 26/68/72
f 29/69/73 27/70/74 28/71/75 30/72/76
f 32/73/77 31/74/78 29/75/79 30/76/80
f 26/77/81 32/78/82 30/79/83 28/80/84
f 31/81/85 25/82/86 27/83/87 29/84/88
f 35/85/89 36/86/90 34/87/91 33/88/92
f 39/89/93 40/90/94 38/91/95 37/92/96
f 41/93/97 49/94/98 43/95/99
f 43/96/100 49/97/101 50/98/102 45/99/103
f 45/100/104 50/101/105 47/102/106
f 42/103/107 48/104/108 46/105/109 44/106/110
f 47/107/111 41/108/112 43/109/113 45/110/114
f 49/97/115 44/111/116 46/112/117 50/98/118
f 49/94/119 42/113/120 44/114/121
f 48/115/122 50/101/123 46/116/124
f 48/115/125 47/102/126 50/101/127
f 49/94/128 41/93/129 42/113/130
f 52/117/131 51/118/132 59/119/133 60/120/134
f 53/121/135 52/122/136 60/123/137 61/124/138
f 54/125/139 62/126/140 59/127/141 51/128/142
f 62/129/143 54/130/144 53/131/145 61/132/146
f 60/120/147 59/119/148 55/133/149 57/134/150
f 58/135/151 56/136/152 62/129/153 61/132/154
f 59/127/155 62/126/156 56/137/157 55/138/158
f 58/139/159 61/124/160 60/123/161 57/140/162
